<?xml version="1.0" encoding="UTF-8"?>
<svg width="50px" height="49px" viewBox="0 0 50 49" version="1.1" xmlns="http://www.w3.org/2000/svg" xmlns:xlink="http://www.w3.org/1999/xlink">
    <title>github-icon</title>
    <g id="Page-1" stroke="none" stroke-width="1" fill="none" fill-rule="evenodd">
        <path d="M29.7391738,36.1441777 C32.5671445,38.2966526 29.4358646,47.9786725 31.9523847,47.9786725 C41.7513747,44.8919549 48.8122454,36.6106581 49,25 C49.2560118,12.5202155 38.7767777,1 25.3187685,1 C11.8607593,1 1,11.2077704 1,25.0094079 C1,35.8938915 8.54726137,45.2802057 18.013121,47.9786725 C18.857873,48.219489 18.7636487,47.3919374 18.8478424,45.8204971 C18.8984305,44.876291 19.1132984,42.8240409 18.7000654,42.6446389 C18.2868324,42.465237 15.1529994,44.1547367 12.3042452,41.9282256 C10.5287732,40.5405636 10.3374879,38.7117679 9.3816694,37.4948699 C7.51394237,35.1169779 4.07404107,35.1564442 7.52073887,34.3399426 C10.9674367,33.5234409 12.8769126,40.0010314 16.1780568,39.5559431 C16.9405028,39.4531437 17.798724,39.3058926 18.9841844,38.8591019 C19.3061212,38.2942232 19.2896033,37.2645672 19.4878877,36.8289217 C19.7989753,36.1454393 19.2469985,37.2059309 19.8988461,36.1441777 C20.3011735,35.4372377 13.70062,36.0665551 10.6296302,30.2094433 C7.55864048,24.3523316 10.1730495,18.3575423 11.7583023,17.2968928 C12.3042452,17.2968928 10.6296302,14.3356924 12.3042452,10.6091636 C14.3505941,10.6091636 16.3768786,11.4106332 18.9841844,13.4351991 C24.8678099,11.9753021 25.1529924,11.9753021 31.0786281,13.4351991 C34.261763,11.1572093 35.7521664,10.6091636 37.5186852,10.6091636 C39.3461333,14.8133152 37.5155315,16.8409431 37.8851609,17.2968928 C39.0747648,17.7396902 42.4216475,23.8120887 39.0821512,30.2094433 C35.7426549,36.606798 28.3489522,35.1420448 29.7391738,36.1441777 Z" id="github-icon" stroke="#EFAABB" stroke-width="1.5"></path>
    </g>
</svg>